M48
; DRILL file {KiCad (5.1.9)-1} date 04/29/21 12:00:22
; FORMAT={-:-/ absolute / inch / decimal}
; #@! TF.CreationDate,2021-04-29T12:00:22-07:00
; #@! TF.GenerationSoftware,Kicad,Pcbnew,(5.1.9)-1
; #@! TF.FileFunction,Plated,1,2,PTH
FMAT,2
INCH
T1C0.0157
T2C0.0300
T3C0.0394
T4C0.0413
T5C0.0591
%
G90
G05
T1
X6.36Y6.2795
X6.44Y6.3
X7.44Y3.62
T2
X2.22Y6.925
X2.23Y5.325
X2.245Y1.8
X2.32Y6.925
X2.33Y5.325
X2.345Y1.8
X2.42Y6.925
X2.42Y3.275
X2.42Y3.175
X2.42Y3.075
X2.42Y2.975
X2.42Y2.875
X2.42Y2.775
X2.43Y5.325
X2.445Y4.775
X2.445Y4.675
X2.445Y4.175
X2.445Y4.075
X2.445Y1.8
X2.52Y6.925
X2.53Y5.325
X2.545Y4.775
X2.545Y4.675
X2.545Y4.175
X2.545Y4.075
X2.545Y1.8
X2.63Y5.325
X2.645Y4.775
X2.645Y4.675
X2.645Y4.175
X2.645Y4.075
X2.73Y5.325
X2.745Y4.775
X2.745Y4.675
X2.745Y4.175
X2.745Y4.075
X2.83Y5.325
X2.845Y4.775
X2.845Y4.675
X2.845Y4.175
X2.845Y4.075
X2.925Y1.83
X2.93Y5.325
X2.945Y4.775
X2.945Y4.675
X2.945Y4.175
X2.945Y4.075
X3.025Y1.83
X3.03Y5.325
X3.045Y4.775
X3.045Y4.675
X3.045Y4.175
X3.045Y4.075
X3.125Y1.83
X3.145Y4.775
X3.145Y4.675
X3.145Y4.175
X3.145Y4.075
X3.245Y4.775
X3.245Y4.675
X3.245Y4.175
X3.245Y4.075
X3.345Y4.775
X3.345Y4.675
X3.345Y4.175
X3.345Y4.075
X3.445Y4.775
X3.445Y4.675
X3.445Y4.175
X3.445Y4.075
X3.545Y4.775
X3.545Y4.675
X3.545Y4.175
X3.545Y4.075
X3.57Y1.9
X3.645Y5.525
X3.645Y5.425
X3.645Y5.325
X3.645Y5.225
X3.645Y4.775
X3.645Y4.675
X3.645Y4.175
X3.645Y4.075
X3.645Y3.675
X3.645Y3.575
X3.645Y3.475
X3.645Y3.375
X3.67Y1.9
X3.745Y4.775
X3.745Y4.675
X3.745Y4.175
X3.745Y4.075
X3.77Y1.9
X3.845Y4.775
X3.845Y4.675
X3.845Y4.175
X3.845Y4.075
X3.87Y1.9
X3.945Y4.775
X3.945Y4.675
X3.945Y4.175
X3.945Y4.075
X4.045Y4.775
X4.045Y4.675
X4.045Y4.175
X4.045Y4.075
X4.145Y4.775
X4.145Y4.675
X4.145Y4.175
X4.145Y4.075
X4.1895Y5.4309
X4.1895Y5.3309
X4.1895Y3.5809
X4.1895Y3.4809
X4.245Y4.775
X4.245Y4.675
X4.245Y4.175
X4.245Y4.075
X4.345Y4.775
X4.345Y4.675
X4.345Y4.175
X4.345Y4.075
X4.445Y5.975
X4.545Y5.975
X4.645Y5.975
X4.67Y6.925
X4.745Y5.975
X4.77Y6.925
X4.845Y5.975
X4.87Y6.925
X4.945Y5.975
X4.97Y6.925
X5.045Y5.975
X5.145Y5.975
X5.22Y4.775
X5.22Y4.675
X5.22Y4.175
X5.22Y4.075
X5.32Y4.775
X5.32Y4.675
X5.32Y4.175
X5.32Y4.075
X5.4005Y5.4191
X5.4005Y5.3191
X5.4005Y3.5691
X5.4005Y3.4691
X5.42Y4.775
X5.42Y4.675
X5.42Y4.175
X5.42Y4.075
X5.52Y4.775
X5.52Y4.675
X5.52Y4.175
X5.52Y4.075
X5.62Y4.775
X5.62Y4.675
X5.62Y4.175
X5.62Y4.075
X5.72Y4.775
X5.72Y4.675
X5.72Y4.175
X5.72Y4.075
X5.82Y4.775
X5.82Y4.675
X5.82Y4.175
X5.82Y4.075
X5.845Y6.6
X5.92Y4.775
X5.92Y4.675
X5.92Y4.175
X5.92Y4.075
X5.945Y6.6
X5.945Y5.525
X5.945Y5.425
X5.945Y5.325
X5.945Y5.225
X5.945Y3.675
X5.945Y3.575
X5.945Y3.475
X5.945Y3.375
X6.02Y4.775
X6.02Y4.675
X6.02Y4.175
X6.02Y4.075
X6.045Y6.6
X6.12Y4.775
X6.12Y4.675
X6.12Y4.175
X6.12Y4.075
X6.145Y6.6
X6.22Y4.775
X6.22Y4.675
X6.22Y4.175
X6.22Y4.075
X6.32Y4.775
X6.32Y4.675
X6.32Y4.175
X6.32Y4.075
X6.42Y4.775
X6.42Y4.675
X6.42Y4.175
X6.42Y4.075
X6.52Y4.775
X6.52Y4.675
X6.52Y4.175
X6.52Y4.075
X6.62Y4.775
X6.62Y4.675
X6.62Y4.175
X6.62Y4.075
X6.72Y4.775
X6.72Y4.675
X6.72Y4.175
X6.72Y4.075
X6.82Y4.775
X6.82Y4.675
X6.82Y4.175
X6.82Y4.075
X6.92Y4.775
X6.92Y4.675
X6.92Y4.175
X6.92Y4.075
X7.02Y4.775
X7.02Y4.675
X7.02Y4.175
X7.02Y4.075
X7.07Y6.925
X7.07Y1.8
X7.12Y4.775
X7.12Y4.675
X7.12Y4.175
X7.12Y4.075
X7.17Y6.925
X7.17Y1.8
X7.27Y6.925
X7.27Y1.8
X7.37Y6.925
X7.37Y1.8
T3
X4.795Y4.5
X4.795Y4.4
X7.37Y3.15
X7.37Y3.05
T4
X6.845Y6.6
X6.845Y6.5
X6.945Y6.6
X6.945Y6.5
X7.045Y6.6
X7.045Y6.5
X7.145Y6.6
X7.145Y6.5
T5
X4.495Y2.525
X4.495Y2.325
X6.595Y2.525
X6.595Y2.325
T3
G00X7.2098Y2.4644
M15
G01X7.2098Y2.5431
M16
G05
G00X7.3672Y2.6888
M15
G01X7.2885Y2.6888
M16
G05
G00X7.446Y2.4644
M15
G01X7.446Y2.5431
M16
G05
T0
M30
