%TF.GenerationSoftware,KiCad,Pcbnew,(5.1.9)-1*%
%TF.CreationDate,2021-04-29T12:00:25-07:00*%
%TF.ProjectId,pcbDesignForAutonomousDrivingProject,70636244-6573-4696-976e-466f72417574,rev?*%
%TF.SameCoordinates,Original*%
%TF.FileFunction,Legend,Bot*%
%TF.FilePolarity,Positive*%
%FSLAX46Y46*%
G04 Gerber Fmt 4.6, Leading zero omitted, Abs format (unit mm)*
G04 Created by KiCad (PCBNEW (5.1.9)-1) date 2021-04-29 12:00:25*
%MOMM*%
%LPD*%
G01*
G04 APERTURE LIST*
%ADD10C,0.500000*%
%ADD11C,0.120000*%
%ADD12C,0.150000*%
G04 APERTURE END LIST*
D10*
X166321333Y75295238D02*
X166321333Y77295238D01*
X165845142Y77295238D01*
X165559428Y77200000D01*
X165368952Y77009523D01*
X165273714Y76819047D01*
X165178476Y76438095D01*
X165178476Y76152380D01*
X165273714Y75771428D01*
X165368952Y75580952D01*
X165559428Y75390476D01*
X165845142Y75295238D01*
X166321333Y75295238D01*
X164321333Y75295238D02*
X164321333Y76628571D01*
X164321333Y76247619D02*
X164226095Y76438095D01*
X164130857Y76533333D01*
X163940380Y76628571D01*
X163749904Y76628571D01*
X163083238Y75295238D02*
X163083238Y76628571D01*
X163083238Y77295238D02*
X163178476Y77200000D01*
X163083238Y77104761D01*
X162988000Y77200000D01*
X163083238Y77295238D01*
X163083238Y77104761D01*
X162321333Y76628571D02*
X161845142Y75295238D01*
X161368952Y76628571D01*
X159845142Y75390476D02*
X160035619Y75295238D01*
X160416571Y75295238D01*
X160607047Y75390476D01*
X160702285Y75580952D01*
X160702285Y76342857D01*
X160607047Y76533333D01*
X160416571Y76628571D01*
X160035619Y76628571D01*
X159845142Y76533333D01*
X159749904Y76342857D01*
X159749904Y76152380D01*
X160702285Y75961904D01*
X158892761Y75295238D02*
X158892761Y76628571D01*
X158892761Y76247619D02*
X158797523Y76438095D01*
X158702285Y76533333D01*
X158511809Y76628571D01*
X158321333Y76628571D01*
X156130857Y75295238D02*
X156130857Y77295238D01*
X154988000Y75295238D01*
X154988000Y77295238D01*
X153749904Y75295238D02*
X153940380Y75390476D01*
X154035619Y75485714D01*
X154130857Y75676190D01*
X154130857Y76247619D01*
X154035619Y76438095D01*
X153940380Y76533333D01*
X153749904Y76628571D01*
X153464190Y76628571D01*
X153273714Y76533333D01*
X153178476Y76438095D01*
X153083238Y76247619D01*
X153083238Y75676190D01*
X153178476Y75485714D01*
X153273714Y75390476D01*
X153464190Y75295238D01*
X153749904Y75295238D01*
X151368952Y75295238D02*
X151368952Y77295238D01*
X151368952Y75390476D02*
X151559428Y75295238D01*
X151940380Y75295238D01*
X152130857Y75390476D01*
X152226095Y75485714D01*
X152321333Y75676190D01*
X152321333Y76247619D01*
X152226095Y76438095D01*
X152130857Y76533333D01*
X151940380Y76628571D01*
X151559428Y76628571D01*
X151368952Y76533333D01*
X149654666Y75390476D02*
X149845142Y75295238D01*
X150226095Y75295238D01*
X150416571Y75390476D01*
X150511809Y75580952D01*
X150511809Y76342857D01*
X150416571Y76533333D01*
X150226095Y76628571D01*
X149845142Y76628571D01*
X149654666Y76533333D01*
X149559428Y76342857D01*
X149559428Y76152380D01*
X150511809Y75961904D01*
X95312761Y150860000D02*
X95503238Y150955238D01*
X95788952Y150955238D01*
X96074666Y150860000D01*
X96265142Y150669523D01*
X96360380Y150479047D01*
X96455619Y150098095D01*
X96455619Y149812380D01*
X96360380Y149431428D01*
X96265142Y149240952D01*
X96074666Y149050476D01*
X95788952Y148955238D01*
X95598476Y148955238D01*
X95312761Y149050476D01*
X95217523Y149145714D01*
X95217523Y149812380D01*
X95598476Y149812380D01*
X94360380Y148955238D02*
X94360380Y150955238D01*
X93598476Y150955238D01*
X93408000Y150860000D01*
X93312761Y150764761D01*
X93217523Y150574285D01*
X93217523Y150288571D01*
X93312761Y150098095D01*
X93408000Y150002857D01*
X93598476Y149907619D01*
X94360380Y149907619D01*
X92455619Y149050476D02*
X92169904Y148955238D01*
X91693714Y148955238D01*
X91503238Y149050476D01*
X91408000Y149145714D01*
X91312761Y149336190D01*
X91312761Y149526666D01*
X91408000Y149717142D01*
X91503238Y149812380D01*
X91693714Y149907619D01*
X92074666Y150002857D01*
X92265142Y150098095D01*
X92360380Y150193333D01*
X92455619Y150383809D01*
X92455619Y150574285D01*
X92360380Y150764761D01*
X92265142Y150860000D01*
X92074666Y150955238D01*
X91598476Y150955238D01*
X91312761Y150860000D01*
X88931809Y148955238D02*
X88931809Y150955238D01*
X87788952Y148955238D01*
X87788952Y150955238D01*
X86550857Y148955238D02*
X86741333Y149050476D01*
X86836571Y149145714D01*
X86931809Y149336190D01*
X86931809Y149907619D01*
X86836571Y150098095D01*
X86741333Y150193333D01*
X86550857Y150288571D01*
X86265142Y150288571D01*
X86074666Y150193333D01*
X85979428Y150098095D01*
X85884190Y149907619D01*
X85884190Y149336190D01*
X85979428Y149145714D01*
X86074666Y149050476D01*
X86265142Y148955238D01*
X86550857Y148955238D01*
X84169904Y148955238D02*
X84169904Y150955238D01*
X84169904Y149050476D02*
X84360380Y148955238D01*
X84741333Y148955238D01*
X84931809Y149050476D01*
X85027047Y149145714D01*
X85122285Y149336190D01*
X85122285Y149907619D01*
X85027047Y150098095D01*
X84931809Y150193333D01*
X84741333Y150288571D01*
X84360380Y150288571D01*
X84169904Y150193333D01*
X82455619Y149050476D02*
X82646095Y148955238D01*
X83027047Y148955238D01*
X83217523Y149050476D01*
X83312761Y149240952D01*
X83312761Y150002857D01*
X83217523Y150193333D01*
X83027047Y150288571D01*
X82646095Y150288571D01*
X82455619Y150193333D01*
X82360380Y150002857D01*
X82360380Y149812380D01*
X83312761Y149621904D01*
X167067047Y150955238D02*
X167067047Y149336190D01*
X166971809Y149145714D01*
X166876571Y149050476D01*
X166686095Y148955238D01*
X166305142Y148955238D01*
X166114666Y149050476D01*
X166019428Y149145714D01*
X165924190Y149336190D01*
X165924190Y150955238D01*
X164686095Y148955238D02*
X164876571Y149050476D01*
X164971809Y149240952D01*
X164971809Y150955238D01*
X164209904Y150288571D02*
X163448000Y150288571D01*
X163924190Y150955238D02*
X163924190Y149240952D01*
X163828952Y149050476D01*
X163638476Y148955238D01*
X163448000Y148955238D01*
X162781333Y148955238D02*
X162781333Y150288571D01*
X162781333Y149907619D02*
X162686095Y150098095D01*
X162590857Y150193333D01*
X162400380Y150288571D01*
X162209904Y150288571D01*
X160686095Y148955238D02*
X160686095Y150002857D01*
X160781333Y150193333D01*
X160971809Y150288571D01*
X161352761Y150288571D01*
X161543238Y150193333D01*
X160686095Y149050476D02*
X160876571Y148955238D01*
X161352761Y148955238D01*
X161543238Y149050476D01*
X161638476Y149240952D01*
X161638476Y149431428D01*
X161543238Y149621904D01*
X161352761Y149717142D01*
X160876571Y149717142D01*
X160686095Y149812380D01*
X159828952Y149050476D02*
X159638476Y148955238D01*
X159257523Y148955238D01*
X159067047Y149050476D01*
X158971809Y149240952D01*
X158971809Y149336190D01*
X159067047Y149526666D01*
X159257523Y149621904D01*
X159543238Y149621904D01*
X159733714Y149717142D01*
X159828952Y149907619D01*
X159828952Y150002857D01*
X159733714Y150193333D01*
X159543238Y150288571D01*
X159257523Y150288571D01*
X159067047Y150193333D01*
X157828952Y148955238D02*
X158019428Y149050476D01*
X158114666Y149145714D01*
X158209904Y149336190D01*
X158209904Y149907619D01*
X158114666Y150098095D01*
X158019428Y150193333D01*
X157828952Y150288571D01*
X157543238Y150288571D01*
X157352761Y150193333D01*
X157257523Y150098095D01*
X157162285Y149907619D01*
X157162285Y149336190D01*
X157257523Y149145714D01*
X157352761Y149050476D01*
X157543238Y148955238D01*
X157828952Y148955238D01*
X156305142Y150288571D02*
X156305142Y148955238D01*
X156305142Y150098095D02*
X156209904Y150193333D01*
X156019428Y150288571D01*
X155733714Y150288571D01*
X155543238Y150193333D01*
X155448000Y150002857D01*
X155448000Y148955238D01*
X154495619Y148955238D02*
X154495619Y150288571D01*
X154495619Y150955238D02*
X154590857Y150860000D01*
X154495619Y150764761D01*
X154400380Y150860000D01*
X154495619Y150955238D01*
X154495619Y150764761D01*
X152686095Y149050476D02*
X152876571Y148955238D01*
X153257523Y148955238D01*
X153448000Y149050476D01*
X153543238Y149145714D01*
X153638476Y149336190D01*
X153638476Y149907619D01*
X153543238Y150098095D01*
X153448000Y150193333D01*
X153257523Y150288571D01*
X152876571Y150288571D01*
X152686095Y150193333D01*
X150305142Y148955238D02*
X150305142Y150955238D01*
X149162285Y148955238D01*
X149162285Y150955238D01*
X147924190Y148955238D02*
X148114666Y149050476D01*
X148209904Y149145714D01*
X148305142Y149336190D01*
X148305142Y149907619D01*
X148209904Y150098095D01*
X148114666Y150193333D01*
X147924190Y150288571D01*
X147638476Y150288571D01*
X147448000Y150193333D01*
X147352761Y150098095D01*
X147257523Y149907619D01*
X147257523Y149336190D01*
X147352761Y149145714D01*
X147448000Y149050476D01*
X147638476Y148955238D01*
X147924190Y148955238D01*
X145543238Y148955238D02*
X145543238Y150955238D01*
X145543238Y149050476D02*
X145733714Y148955238D01*
X146114666Y148955238D01*
X146305142Y149050476D01*
X146400380Y149145714D01*
X146495619Y149336190D01*
X146495619Y149907619D01*
X146400380Y150098095D01*
X146305142Y150193333D01*
X146114666Y150288571D01*
X145733714Y150288571D01*
X145543238Y150193333D01*
X143828952Y149050476D02*
X144019428Y148955238D01*
X144400380Y148955238D01*
X144590857Y149050476D01*
X144686095Y149240952D01*
X144686095Y150002857D01*
X144590857Y150193333D01*
X144400380Y150288571D01*
X144019428Y150288571D01*
X143828952Y150193333D01*
X143733714Y150002857D01*
X143733714Y149812380D01*
X144686095Y149621904D01*
X101122285Y75295238D02*
X101122285Y76628571D01*
X101122285Y76438095D02*
X101027047Y76533333D01*
X100836571Y76628571D01*
X100550857Y76628571D01*
X100360380Y76533333D01*
X100265142Y76342857D01*
X100265142Y75295238D01*
X100265142Y76342857D02*
X100169904Y76533333D01*
X99979428Y76628571D01*
X99693714Y76628571D01*
X99503238Y76533333D01*
X99408000Y76342857D01*
X99408000Y75295238D01*
X98169904Y75295238D02*
X98360380Y75390476D01*
X98455619Y75485714D01*
X98550857Y75676190D01*
X98550857Y76247619D01*
X98455619Y76438095D01*
X98360380Y76533333D01*
X98169904Y76628571D01*
X97884190Y76628571D01*
X97693714Y76533333D01*
X97598476Y76438095D01*
X97503238Y76247619D01*
X97503238Y75676190D01*
X97598476Y75485714D01*
X97693714Y75390476D01*
X97884190Y75295238D01*
X98169904Y75295238D01*
X96931809Y76628571D02*
X96169904Y76628571D01*
X96646095Y77295238D02*
X96646095Y75580952D01*
X96550857Y75390476D01*
X96360380Y75295238D01*
X96169904Y75295238D01*
X95217523Y75295238D02*
X95408000Y75390476D01*
X95503238Y75485714D01*
X95598476Y75676190D01*
X95598476Y76247619D01*
X95503238Y76438095D01*
X95408000Y76533333D01*
X95217523Y76628571D01*
X94931809Y76628571D01*
X94741333Y76533333D01*
X94646095Y76438095D01*
X94550857Y76247619D01*
X94550857Y75676190D01*
X94646095Y75485714D01*
X94741333Y75390476D01*
X94931809Y75295238D01*
X95217523Y75295238D01*
X93693714Y75295238D02*
X93693714Y76628571D01*
X93693714Y76247619D02*
X93598476Y76438095D01*
X93503238Y76533333D01*
X93312761Y76628571D01*
X93122285Y76628571D01*
X92741333Y77295238D02*
X91598476Y77295238D01*
X92169904Y75295238D02*
X92169904Y77295238D01*
X91122285Y75295238D02*
X90074666Y76628571D01*
X91122285Y76628571D02*
X90074666Y75295238D01*
X88169904Y75295238D02*
X88836571Y76247619D01*
X89312761Y75295238D02*
X89312761Y77295238D01*
X88550857Y77295238D01*
X88360380Y77200000D01*
X88265142Y77104761D01*
X88169904Y76914285D01*
X88169904Y76628571D01*
X88265142Y76438095D01*
X88360380Y76342857D01*
X88550857Y76247619D01*
X89312761Y76247619D01*
X87503238Y75295238D02*
X86455619Y76628571D01*
X87503238Y76628571D02*
X86455619Y75295238D01*
X84169904Y75295238D02*
X84169904Y77295238D01*
X83027047Y75295238D01*
X83027047Y77295238D01*
X81788952Y75295238D02*
X81979428Y75390476D01*
X82074666Y75485714D01*
X82169904Y75676190D01*
X82169904Y76247619D01*
X82074666Y76438095D01*
X81979428Y76533333D01*
X81788952Y76628571D01*
X81503238Y76628571D01*
X81312761Y76533333D01*
X81217523Y76438095D01*
X81122285Y76247619D01*
X81122285Y75676190D01*
X81217523Y75485714D01*
X81312761Y75390476D01*
X81503238Y75295238D01*
X81788952Y75295238D01*
X79408000Y75295238D02*
X79408000Y77295238D01*
X79408000Y75390476D02*
X79598476Y75295238D01*
X79979428Y75295238D01*
X80169904Y75390476D01*
X80265142Y75485714D01*
X80360380Y75676190D01*
X80360380Y76247619D01*
X80265142Y76438095D01*
X80169904Y76533333D01*
X79979428Y76628571D01*
X79598476Y76628571D01*
X79408000Y76533333D01*
X77693714Y75390476D02*
X77884190Y75295238D01*
X78265142Y75295238D01*
X78455619Y75390476D01*
X78550857Y75580952D01*
X78550857Y76342857D01*
X78455619Y76533333D01*
X78265142Y76628571D01*
X77884190Y76628571D01*
X77693714Y76533333D01*
X77598476Y76342857D01*
X77598476Y76152380D01*
X78550857Y75961904D01*
D11*
%TO.C,U3*%
X57023000Y114300000D02*
X57023000Y127000000D01*
X57023000Y127000000D02*
X115443000Y127000000D01*
X115443000Y127000000D02*
X115443000Y114300000D01*
X115443000Y114300000D02*
X57023000Y114300000D01*
X117983000Y114300000D02*
X118618000Y114300000D01*
X118618000Y114300000D02*
X118618000Y182880000D01*
X118618000Y182880000D02*
X53848000Y182880000D01*
X53848000Y182880000D02*
X53848000Y114300000D01*
X57023000Y114300000D02*
X53848000Y114300000D01*
X117983000Y114300000D02*
X115443000Y114300000D01*
%TO.C,U14*%
X185928000Y110490000D02*
X185928000Y97790000D01*
X185928000Y97790000D02*
X127508000Y97790000D01*
X127508000Y97790000D02*
X127508000Y110490000D01*
X127508000Y110490000D02*
X185928000Y110490000D01*
X124968000Y110490000D02*
X124333000Y110490000D01*
X124333000Y110490000D02*
X124333000Y41910000D01*
X124333000Y41910000D02*
X189103000Y41910000D01*
X189103000Y41910000D02*
X189103000Y110490000D01*
X185928000Y110490000D02*
X189103000Y110490000D01*
X124968000Y110490000D02*
X127508000Y110490000D01*
%TO.C,U12*%
X54483000Y110490000D02*
X57023000Y110490000D01*
X115443000Y110490000D02*
X118618000Y110490000D01*
X118618000Y41910000D02*
X118618000Y110490000D01*
X53848000Y41910000D02*
X118618000Y41910000D01*
X53848000Y110490000D02*
X53848000Y41910000D01*
X54483000Y110490000D02*
X53848000Y110490000D01*
X57023000Y110490000D02*
X115443000Y110490000D01*
X57023000Y97790000D02*
X57023000Y110490000D01*
X115443000Y97790000D02*
X57023000Y97790000D01*
X115443000Y110490000D02*
X115443000Y97790000D01*
%TO.C,U2*%
X188468000Y114300000D02*
X185928000Y114300000D01*
X127508000Y114300000D02*
X124333000Y114300000D01*
X124333000Y182880000D02*
X124333000Y114300000D01*
X189103000Y182880000D02*
X124333000Y182880000D01*
X189103000Y114300000D02*
X189103000Y182880000D01*
X188468000Y114300000D02*
X189103000Y114300000D01*
X185928000Y114300000D02*
X127508000Y114300000D01*
X185928000Y127000000D02*
X185928000Y114300000D01*
X127508000Y127000000D02*
X185928000Y127000000D01*
X127508000Y114300000D02*
X127508000Y127000000D01*
%TO.C,U3*%
D12*
X112355380Y125221904D02*
X113164904Y125221904D01*
X113260142Y125174285D01*
X113307761Y125126666D01*
X113355380Y125031428D01*
X113355380Y124840952D01*
X113307761Y124745714D01*
X113260142Y124698095D01*
X113164904Y124650476D01*
X112355380Y124650476D01*
X112355380Y124269523D02*
X112355380Y123650476D01*
X112736333Y123983809D01*
X112736333Y123840952D01*
X112783952Y123745714D01*
X112831571Y123698095D01*
X112926809Y123650476D01*
X113164904Y123650476D01*
X113260142Y123698095D01*
X113307761Y123745714D01*
X113355380Y123840952D01*
X113355380Y124126666D01*
X113307761Y124221904D01*
X113260142Y124269523D01*
X109863000Y116966904D02*
X109815380Y117062142D01*
X109815380Y117205000D01*
X109863000Y117347857D01*
X109958238Y117443095D01*
X110053476Y117490714D01*
X110243952Y117538333D01*
X110386809Y117538333D01*
X110577285Y117490714D01*
X110672523Y117443095D01*
X110767761Y117347857D01*
X110815380Y117205000D01*
X110815380Y117109761D01*
X110767761Y116966904D01*
X110720142Y116919285D01*
X110386809Y116919285D01*
X110386809Y117109761D01*
X110815380Y116490714D02*
X109815380Y116490714D01*
X110815380Y115919285D01*
X109815380Y115919285D01*
X110815380Y115443095D02*
X109815380Y115443095D01*
X109815380Y115205000D01*
X109863000Y115062142D01*
X109958238Y114966904D01*
X110053476Y114919285D01*
X110243952Y114871666D01*
X110386809Y114871666D01*
X110577285Y114919285D01*
X110672523Y114966904D01*
X110767761Y115062142D01*
X110815380Y115205000D01*
X110815380Y115443095D01*
X109863000Y124586904D02*
X109815380Y124682142D01*
X109815380Y124825000D01*
X109863000Y124967857D01*
X109958238Y125063095D01*
X110053476Y125110714D01*
X110243952Y125158333D01*
X110386809Y125158333D01*
X110577285Y125110714D01*
X110672523Y125063095D01*
X110767761Y124967857D01*
X110815380Y124825000D01*
X110815380Y124729761D01*
X110767761Y124586904D01*
X110720142Y124539285D01*
X110386809Y124539285D01*
X110386809Y124729761D01*
X110815380Y124110714D02*
X109815380Y124110714D01*
X110815380Y123539285D01*
X109815380Y123539285D01*
X110815380Y123063095D02*
X109815380Y123063095D01*
X109815380Y122825000D01*
X109863000Y122682142D01*
X109958238Y122586904D01*
X110053476Y122539285D01*
X110243952Y122491666D01*
X110386809Y122491666D01*
X110577285Y122539285D01*
X110672523Y122586904D01*
X110767761Y122682142D01*
X110815380Y122825000D01*
X110815380Y123063095D01*
X59745619Y119030714D02*
X59698000Y118983095D01*
X59650380Y118887857D01*
X59650380Y118649761D01*
X59698000Y118554523D01*
X59745619Y118506904D01*
X59840857Y118459285D01*
X59936095Y118459285D01*
X60078952Y118506904D01*
X60650380Y119078333D01*
X60650380Y118459285D01*
X60650380Y120999285D02*
X60650380Y121570714D01*
X60650380Y121285000D02*
X59650380Y121285000D01*
X59793238Y121380238D01*
X59888476Y121475476D01*
X59936095Y121570714D01*
%TO.C,U14*%
X129500380Y101568095D02*
X130309904Y101568095D01*
X130405142Y101520476D01*
X130452761Y101472857D01*
X130500380Y101377619D01*
X130500380Y101187142D01*
X130452761Y101091904D01*
X130405142Y101044285D01*
X130309904Y100996666D01*
X129500380Y100996666D01*
X130500380Y99996666D02*
X130500380Y100568095D01*
X130500380Y100282380D02*
X129500380Y100282380D01*
X129643238Y100377619D01*
X129738476Y100472857D01*
X129786095Y100568095D01*
X129833714Y99139523D02*
X130500380Y99139523D01*
X129452761Y99377619D02*
X130167047Y99615714D01*
X130167047Y98996666D01*
X132088000Y109346904D02*
X132040380Y109442142D01*
X132040380Y109585000D01*
X132088000Y109727857D01*
X132183238Y109823095D01*
X132278476Y109870714D01*
X132468952Y109918333D01*
X132611809Y109918333D01*
X132802285Y109870714D01*
X132897523Y109823095D01*
X132992761Y109727857D01*
X133040380Y109585000D01*
X133040380Y109489761D01*
X132992761Y109346904D01*
X132945142Y109299285D01*
X132611809Y109299285D01*
X132611809Y109489761D01*
X133040380Y108870714D02*
X132040380Y108870714D01*
X133040380Y108299285D01*
X132040380Y108299285D01*
X133040380Y107823095D02*
X132040380Y107823095D01*
X132040380Y107585000D01*
X132088000Y107442142D01*
X132183238Y107346904D01*
X132278476Y107299285D01*
X132468952Y107251666D01*
X132611809Y107251666D01*
X132802285Y107299285D01*
X132897523Y107346904D01*
X132992761Y107442142D01*
X133040380Y107585000D01*
X133040380Y107823095D01*
X132088000Y101726904D02*
X132040380Y101822142D01*
X132040380Y101965000D01*
X132088000Y102107857D01*
X132183238Y102203095D01*
X132278476Y102250714D01*
X132468952Y102298333D01*
X132611809Y102298333D01*
X132802285Y102250714D01*
X132897523Y102203095D01*
X132992761Y102107857D01*
X133040380Y101965000D01*
X133040380Y101869761D01*
X132992761Y101726904D01*
X132945142Y101679285D01*
X132611809Y101679285D01*
X132611809Y101869761D01*
X133040380Y101250714D02*
X132040380Y101250714D01*
X133040380Y100679285D01*
X132040380Y100679285D01*
X133040380Y100203095D02*
X132040380Y100203095D01*
X132040380Y99965000D01*
X132088000Y99822142D01*
X132183238Y99726904D01*
X132278476Y99679285D01*
X132468952Y99631666D01*
X132611809Y99631666D01*
X132802285Y99679285D01*
X132897523Y99726904D01*
X132992761Y99822142D01*
X133040380Y99965000D01*
X133040380Y100203095D01*
X182300619Y106330714D02*
X182253000Y106283095D01*
X182205380Y106187857D01*
X182205380Y105949761D01*
X182253000Y105854523D01*
X182300619Y105806904D01*
X182395857Y105759285D01*
X182491095Y105759285D01*
X182633952Y105806904D01*
X183205380Y106378333D01*
X183205380Y105759285D01*
X183205380Y103219285D02*
X183205380Y103790714D01*
X183205380Y103505000D02*
X182205380Y103505000D01*
X182348238Y103600238D01*
X182443476Y103695476D01*
X182491095Y103790714D01*
%TO.C,U12*%
X59015380Y101568095D02*
X59824904Y101568095D01*
X59920142Y101520476D01*
X59967761Y101472857D01*
X60015380Y101377619D01*
X60015380Y101187142D01*
X59967761Y101091904D01*
X59920142Y101044285D01*
X59824904Y100996666D01*
X59015380Y100996666D01*
X60015380Y99996666D02*
X60015380Y100568095D01*
X60015380Y100282380D02*
X59015380Y100282380D01*
X59158238Y100377619D01*
X59253476Y100472857D01*
X59301095Y100568095D01*
X59110619Y99615714D02*
X59063000Y99568095D01*
X59015380Y99472857D01*
X59015380Y99234761D01*
X59063000Y99139523D01*
X59110619Y99091904D01*
X59205857Y99044285D01*
X59301095Y99044285D01*
X59443952Y99091904D01*
X60015380Y99663333D01*
X60015380Y99044285D01*
X112720380Y103219285D02*
X112720380Y103790714D01*
X112720380Y103505000D02*
X111720380Y103505000D01*
X111863238Y103600238D01*
X111958476Y103695476D01*
X112006095Y103790714D01*
X111815619Y106330714D02*
X111768000Y106283095D01*
X111720380Y106187857D01*
X111720380Y105949761D01*
X111768000Y105854523D01*
X111815619Y105806904D01*
X111910857Y105759285D01*
X112006095Y105759285D01*
X112148952Y105806904D01*
X112720380Y106378333D01*
X112720380Y105759285D01*
X61603000Y101726904D02*
X61555380Y101822142D01*
X61555380Y101965000D01*
X61603000Y102107857D01*
X61698238Y102203095D01*
X61793476Y102250714D01*
X61983952Y102298333D01*
X62126809Y102298333D01*
X62317285Y102250714D01*
X62412523Y102203095D01*
X62507761Y102107857D01*
X62555380Y101965000D01*
X62555380Y101869761D01*
X62507761Y101726904D01*
X62460142Y101679285D01*
X62126809Y101679285D01*
X62126809Y101869761D01*
X62555380Y101250714D02*
X61555380Y101250714D01*
X62555380Y100679285D01*
X61555380Y100679285D01*
X62555380Y100203095D02*
X61555380Y100203095D01*
X61555380Y99965000D01*
X61603000Y99822142D01*
X61698238Y99726904D01*
X61793476Y99679285D01*
X61983952Y99631666D01*
X62126809Y99631666D01*
X62317285Y99679285D01*
X62412523Y99726904D01*
X62507761Y99822142D01*
X62555380Y99965000D01*
X62555380Y100203095D01*
X61603000Y109346904D02*
X61555380Y109442142D01*
X61555380Y109585000D01*
X61603000Y109727857D01*
X61698238Y109823095D01*
X61793476Y109870714D01*
X61983952Y109918333D01*
X62126809Y109918333D01*
X62317285Y109870714D01*
X62412523Y109823095D01*
X62507761Y109727857D01*
X62555380Y109585000D01*
X62555380Y109489761D01*
X62507761Y109346904D01*
X62460142Y109299285D01*
X62126809Y109299285D01*
X62126809Y109489761D01*
X62555380Y108870714D02*
X61555380Y108870714D01*
X62555380Y108299285D01*
X61555380Y108299285D01*
X62555380Y107823095D02*
X61555380Y107823095D01*
X61555380Y107585000D01*
X61603000Y107442142D01*
X61698238Y107346904D01*
X61793476Y107299285D01*
X61983952Y107251666D01*
X62126809Y107251666D01*
X62317285Y107299285D01*
X62412523Y107346904D01*
X62507761Y107442142D01*
X62555380Y107585000D01*
X62555380Y107823095D01*
%TO.C,U2*%
X182840380Y125221904D02*
X183649904Y125221904D01*
X183745142Y125174285D01*
X183792761Y125126666D01*
X183840380Y125031428D01*
X183840380Y124840952D01*
X183792761Y124745714D01*
X183745142Y124698095D01*
X183649904Y124650476D01*
X182840380Y124650476D01*
X182935619Y124221904D02*
X182888000Y124174285D01*
X182840380Y124079047D01*
X182840380Y123840952D01*
X182888000Y123745714D01*
X182935619Y123698095D01*
X183030857Y123650476D01*
X183126095Y123650476D01*
X183268952Y123698095D01*
X183840380Y124269523D01*
X183840380Y123650476D01*
X131135380Y120999285D02*
X131135380Y121570714D01*
X131135380Y121285000D02*
X130135380Y121285000D01*
X130278238Y121380238D01*
X130373476Y121475476D01*
X130421095Y121570714D01*
X130230619Y119030714D02*
X130183000Y118983095D01*
X130135380Y118887857D01*
X130135380Y118649761D01*
X130183000Y118554523D01*
X130230619Y118506904D01*
X130325857Y118459285D01*
X130421095Y118459285D01*
X130563952Y118506904D01*
X131135380Y119078333D01*
X131135380Y118459285D01*
X180348000Y124586904D02*
X180300380Y124682142D01*
X180300380Y124825000D01*
X180348000Y124967857D01*
X180443238Y125063095D01*
X180538476Y125110714D01*
X180728952Y125158333D01*
X180871809Y125158333D01*
X181062285Y125110714D01*
X181157523Y125063095D01*
X181252761Y124967857D01*
X181300380Y124825000D01*
X181300380Y124729761D01*
X181252761Y124586904D01*
X181205142Y124539285D01*
X180871809Y124539285D01*
X180871809Y124729761D01*
X181300380Y124110714D02*
X180300380Y124110714D01*
X181300380Y123539285D01*
X180300380Y123539285D01*
X181300380Y123063095D02*
X180300380Y123063095D01*
X180300380Y122825000D01*
X180348000Y122682142D01*
X180443238Y122586904D01*
X180538476Y122539285D01*
X180728952Y122491666D01*
X180871809Y122491666D01*
X181062285Y122539285D01*
X181157523Y122586904D01*
X181252761Y122682142D01*
X181300380Y122825000D01*
X181300380Y123063095D01*
X180348000Y116966904D02*
X180300380Y117062142D01*
X180300380Y117205000D01*
X180348000Y117347857D01*
X180443238Y117443095D01*
X180538476Y117490714D01*
X180728952Y117538333D01*
X180871809Y117538333D01*
X181062285Y117490714D01*
X181157523Y117443095D01*
X181252761Y117347857D01*
X181300380Y117205000D01*
X181300380Y117109761D01*
X181252761Y116966904D01*
X181205142Y116919285D01*
X180871809Y116919285D01*
X180871809Y117109761D01*
X181300380Y116490714D02*
X180300380Y116490714D01*
X181300380Y115919285D01*
X180300380Y115919285D01*
X181300380Y115443095D02*
X180300380Y115443095D01*
X180300380Y115205000D01*
X180348000Y115062142D01*
X180443238Y114966904D01*
X180538476Y114919285D01*
X180728952Y114871666D01*
X180871809Y114871666D01*
X181062285Y114919285D01*
X181157523Y114966904D01*
X181252761Y115062142D01*
X181300380Y115205000D01*
X181300380Y115443095D01*
%TD*%
M02*
