%TF.GenerationSoftware,KiCad,Pcbnew,(5.1.9)-1*%
%TF.CreationDate,2021-04-29T12:00:25-07:00*%
%TF.ProjectId,pcbDesignForAutonomousDrivingProject,70636244-6573-4696-976e-466f72417574,rev?*%
%TF.SameCoordinates,Original*%
%TF.FileFunction,Soldermask,Bot*%
%TF.FilePolarity,Negative*%
%FSLAX46Y46*%
G04 Gerber Fmt 4.6, Leading zero omitted, Abs format (unit mm)*
G04 Created by KiCad (PCBNEW (5.1.9)-1) date 2021-04-29 12:00:25*
%MOMM*%
%LPD*%
G01*
G04 APERTURE LIST*
%ADD10C,1.524000*%
%ADD11R,3.500000X3.500000*%
%ADD12C,3.000000*%
%ADD13C,1.575000*%
%ADD14R,1.575000X1.575000*%
%ADD15O,1.700000X1.700000*%
%ADD16R,1.700000X1.700000*%
G04 APERTURE END LIST*
D10*
%TO.C,U3*%
X110363000Y118745000D03*
X110363000Y121285000D03*
X107823000Y118745000D03*
X107823000Y121285000D03*
X105283000Y118745000D03*
X105283000Y121285000D03*
X102743000Y118745000D03*
X102743000Y121285000D03*
X100203000Y118745000D03*
X100203000Y121285000D03*
X97663000Y118745000D03*
X97663000Y121285000D03*
X95123000Y118745000D03*
X95123000Y121285000D03*
X92583000Y118745000D03*
X92583000Y121285000D03*
X90043000Y118745000D03*
X90043000Y121285000D03*
X87503000Y118745000D03*
X87503000Y121285000D03*
X84963000Y118745000D03*
X84963000Y121285000D03*
X82423000Y118745000D03*
X82423000Y121285000D03*
X79883000Y118745000D03*
X79883000Y121285000D03*
X77343000Y118745000D03*
X77343000Y121285000D03*
X74803000Y118745000D03*
X74803000Y121285000D03*
X72263000Y118745000D03*
X72263000Y121285000D03*
X69723000Y118745000D03*
X69723000Y121285000D03*
X67183000Y118745000D03*
X67183000Y121285000D03*
X64643000Y118745000D03*
X64643000Y121285000D03*
X62103000Y118745000D03*
X62103000Y121285000D03*
%TD*%
%TO.C,J2*%
G36*
G01*
X187878000Y69171000D02*
X187878000Y67421000D01*
G75*
G02*
X187003000Y66546000I-875000J0D01*
G01*
X185253000Y66546000D01*
G75*
G02*
X184378000Y67421000I0J875000D01*
G01*
X184378000Y69171000D01*
G75*
G02*
X185253000Y70046000I875000J0D01*
G01*
X187003000Y70046000D01*
G75*
G02*
X187878000Y69171000I0J-875000D01*
G01*
G37*
G36*
G01*
X190628000Y64596000D02*
X190628000Y62596000D01*
G75*
G02*
X189878000Y61846000I-750000J0D01*
G01*
X188378000Y61846000D01*
G75*
G02*
X187628000Y62596000I0J750000D01*
G01*
X187628000Y64596000D01*
G75*
G02*
X188378000Y65346000I750000J0D01*
G01*
X189878000Y65346000D01*
G75*
G02*
X190628000Y64596000I0J-750000D01*
G01*
G37*
D11*
X183128000Y63596000D03*
%TD*%
D10*
%TO.C,J1*%
X79375000Y46482000D03*
X76835000Y46482000D03*
X74295000Y46482000D03*
%TD*%
%TO.C,U16*%
X61468000Y70485000D03*
X61468000Y73025000D03*
X61468000Y75565000D03*
X61468000Y78105000D03*
X61468000Y80645000D03*
X61468000Y83185000D03*
%TD*%
%TO.C,U14*%
X132588000Y106045000D03*
X132588000Y103505000D03*
X135128000Y106045000D03*
X135128000Y103505000D03*
X137668000Y106045000D03*
X137668000Y103505000D03*
X140208000Y106045000D03*
X140208000Y103505000D03*
X142748000Y106045000D03*
X142748000Y103505000D03*
X145288000Y106045000D03*
X145288000Y103505000D03*
X147828000Y106045000D03*
X147828000Y103505000D03*
X150368000Y106045000D03*
X150368000Y103505000D03*
X152908000Y106045000D03*
X152908000Y103505000D03*
X155448000Y106045000D03*
X155448000Y103505000D03*
X157988000Y106045000D03*
X157988000Y103505000D03*
X160528000Y106045000D03*
X160528000Y103505000D03*
X163068000Y106045000D03*
X163068000Y103505000D03*
X165608000Y106045000D03*
X165608000Y103505000D03*
X168148000Y106045000D03*
X168148000Y103505000D03*
X170688000Y106045000D03*
X170688000Y103505000D03*
X173228000Y106045000D03*
X173228000Y103505000D03*
X175768000Y106045000D03*
X175768000Y103505000D03*
X178308000Y106045000D03*
X178308000Y103505000D03*
X180848000Y106045000D03*
X180848000Y103505000D03*
%TD*%
D12*
%TO.C,U22*%
X114173000Y64135000D03*
X114173000Y59055000D03*
X167513000Y59055000D03*
X167513000Y64135000D03*
%TD*%
D10*
%TO.C,U12*%
X110363000Y103505000D03*
X110363000Y106045000D03*
X107823000Y103505000D03*
X107823000Y106045000D03*
X105283000Y103505000D03*
X105283000Y106045000D03*
X102743000Y103505000D03*
X102743000Y106045000D03*
X100203000Y103505000D03*
X100203000Y106045000D03*
X97663000Y103505000D03*
X97663000Y106045000D03*
X95123000Y103505000D03*
X95123000Y106045000D03*
X92583000Y103505000D03*
X92583000Y106045000D03*
X90043000Y103505000D03*
X90043000Y106045000D03*
X87503000Y103505000D03*
X87503000Y106045000D03*
X84963000Y103505000D03*
X84963000Y106045000D03*
X82423000Y103505000D03*
X82423000Y106045000D03*
X79883000Y103505000D03*
X79883000Y106045000D03*
X77343000Y103505000D03*
X77343000Y106045000D03*
X74803000Y103505000D03*
X74803000Y106045000D03*
X72263000Y103505000D03*
X72263000Y106045000D03*
X69723000Y103505000D03*
X69723000Y106045000D03*
X67183000Y103505000D03*
X67183000Y106045000D03*
X64643000Y103505000D03*
X64643000Y106045000D03*
X62103000Y103505000D03*
X62103000Y106045000D03*
%TD*%
%TO.C,U17*%
X98298000Y48260000D03*
X95758000Y48260000D03*
X93218000Y48260000D03*
X90678000Y48260000D03*
%TD*%
%TO.C,U2*%
X132588000Y121285000D03*
X132588000Y118745000D03*
X135128000Y121285000D03*
X135128000Y118745000D03*
X137668000Y121285000D03*
X137668000Y118745000D03*
X140208000Y121285000D03*
X140208000Y118745000D03*
X142748000Y121285000D03*
X142748000Y118745000D03*
X145288000Y121285000D03*
X145288000Y118745000D03*
X147828000Y121285000D03*
X147828000Y118745000D03*
X150368000Y121285000D03*
X150368000Y118745000D03*
X152908000Y121285000D03*
X152908000Y118745000D03*
X155448000Y121285000D03*
X155448000Y118745000D03*
X157988000Y121285000D03*
X157988000Y118745000D03*
X160528000Y121285000D03*
X160528000Y118745000D03*
X163068000Y121285000D03*
X163068000Y118745000D03*
X165608000Y121285000D03*
X165608000Y118745000D03*
X168148000Y121285000D03*
X168148000Y118745000D03*
X170688000Y121285000D03*
X170688000Y118745000D03*
X173228000Y121285000D03*
X173228000Y118745000D03*
X175768000Y121285000D03*
X175768000Y118745000D03*
X178308000Y121285000D03*
X178308000Y118745000D03*
X180848000Y121285000D03*
X180848000Y118745000D03*
%TD*%
D13*
%TO.C,U20*%
X173863000Y167640000D03*
X176403000Y167640000D03*
X178943000Y167640000D03*
X181483000Y167640000D03*
D14*
X181483000Y165100000D03*
D13*
X178943000Y165100000D03*
X176403000Y165100000D03*
D14*
X173863000Y165100000D03*
%TD*%
D10*
%TO.C,U19*%
X148463000Y167640000D03*
X156083000Y167640000D03*
X153543000Y167640000D03*
X151003000Y167640000D03*
%TD*%
D15*
%TO.C,J4*%
X187198000Y77470000D03*
D16*
X187198000Y80010000D03*
%TD*%
D10*
%TO.C,U15*%
X92583000Y88265000D03*
X92583000Y90805000D03*
X92583000Y93345000D03*
X92583000Y85725000D03*
X106413000Y90955000D03*
X106413000Y88415000D03*
%TD*%
%TO.C,U13*%
X137173000Y90655000D03*
X137173000Y88115000D03*
X151003000Y93345000D03*
X151003000Y85725000D03*
X151003000Y88265000D03*
X151003000Y90805000D03*
%TD*%
%TO.C,U11*%
X76962000Y135255000D03*
X56642000Y135255000D03*
X59182000Y135255000D03*
X61722000Y135255000D03*
X64262000Y135255000D03*
X66802000Y135255000D03*
X69342000Y135255000D03*
X71882000Y135255000D03*
X74422000Y135255000D03*
%TD*%
%TO.C,U5*%
X118618000Y175895000D03*
X126238000Y175895000D03*
X123698000Y175895000D03*
X121158000Y175895000D03*
%TD*%
%TO.C,U10*%
X106413000Y135405000D03*
X106413000Y137945000D03*
X92583000Y132715000D03*
X92583000Y140335000D03*
X92583000Y137795000D03*
X92583000Y135255000D03*
%TD*%
%TO.C,U9*%
X58928000Y175895000D03*
X61468000Y175895000D03*
X64008000Y175895000D03*
X56388000Y175895000D03*
%TD*%
%TO.C,U7*%
X179578000Y45720000D03*
X187198000Y45720000D03*
X184658000Y45720000D03*
X182118000Y45720000D03*
%TD*%
%TO.C,U6*%
X59563000Y45720000D03*
X62103000Y45720000D03*
X64643000Y45720000D03*
X57023000Y45720000D03*
%TD*%
%TO.C,U4*%
X130683000Y151765000D03*
X112903000Y151765000D03*
X115443000Y151765000D03*
X117983000Y151765000D03*
X120523000Y151765000D03*
X123063000Y151765000D03*
X125603000Y151765000D03*
X128143000Y151765000D03*
%TD*%
%TO.C,U1*%
X151003000Y137795000D03*
X151003000Y135255000D03*
X151003000Y132715000D03*
X151003000Y140335000D03*
X137173000Y135105000D03*
X137173000Y137645000D03*
%TD*%
D15*
%TO.C,J3*%
X121793000Y111760000D03*
D16*
X121793000Y114300000D03*
%TD*%
D10*
%TO.C,U8*%
X179578000Y175895000D03*
X187198000Y175895000D03*
X184658000Y175895000D03*
X182118000Y175895000D03*
%TD*%
M02*
