M48
; DRILL file {KiCad (5.1.9)-1} date 04/29/21 12:58:32
; FORMAT={-:-/ absolute / inch / decimal}
; #@! TF.CreationDate,2021-04-29T12:58:32-07:00
; #@! TF.GenerationSoftware,Kicad,Pcbnew,(5.1.9)-1
; #@! TF.FileFunction,Plated,1,2,PTH
FMAT,2
INCH
T1C0.0157
T2C0.0300
T3C0.0315
T4C0.0394
T5C0.0413
T6C0.0591
%
G90
G05
T1
X6.08Y5.188
X6.94Y2.06
X7.18Y2.04
T2
X2.22Y6.925
X2.23Y5.325
X2.245Y1.8
X2.32Y6.925
X2.33Y5.325
X2.345Y1.8
X2.42Y6.925
X2.42Y3.275
X2.42Y3.175
X2.42Y3.075
X2.42Y2.975
X2.42Y2.875
X2.42Y2.775
X2.43Y5.325
X2.438Y4.17
X2.438Y4.07
X2.44Y4.77
X2.44Y4.67
X2.445Y1.8
X2.52Y6.925
X2.53Y5.325
X2.538Y4.17
X2.538Y4.07
X2.54Y4.77
X2.54Y4.67
X2.545Y1.8
X2.63Y5.325
X2.638Y4.17
X2.638Y4.07
X2.64Y4.77
X2.64Y4.67
X2.73Y5.325
X2.738Y4.17
X2.738Y4.07
X2.74Y4.77
X2.74Y4.67
X2.83Y5.325
X2.838Y4.17
X2.838Y4.07
X2.84Y4.77
X2.84Y4.67
X2.925Y1.83
X2.93Y5.325
X2.938Y4.17
X2.938Y4.07
X2.94Y4.77
X2.94Y4.67
X3.025Y1.83
X3.03Y5.325
X3.038Y4.17
X3.038Y4.07
X3.04Y4.77
X3.04Y4.67
X3.125Y1.83
X3.138Y4.17
X3.138Y4.07
X3.14Y4.77
X3.14Y4.67
X3.238Y4.17
X3.238Y4.07
X3.24Y4.77
X3.24Y4.67
X3.338Y4.17
X3.338Y4.07
X3.34Y4.77
X3.34Y4.67
X3.438Y4.17
X3.438Y4.07
X3.44Y4.77
X3.44Y4.67
X3.538Y4.17
X3.538Y4.07
X3.54Y4.77
X3.54Y4.67
X3.57Y1.9
X3.638Y4.17
X3.638Y4.07
X3.64Y4.77
X3.64Y4.67
X3.645Y5.525
X3.645Y5.425
X3.645Y5.325
X3.645Y5.225
X3.645Y3.675
X3.645Y3.575
X3.645Y3.475
X3.645Y3.375
X3.67Y1.9
X3.738Y4.17
X3.738Y4.07
X3.74Y4.77
X3.74Y4.67
X3.77Y1.9
X3.838Y4.17
X3.838Y4.07
X3.84Y4.77
X3.84Y4.67
X3.87Y1.9
X3.938Y4.17
X3.938Y4.07
X3.94Y4.77
X3.94Y4.67
X4.038Y4.17
X4.038Y4.07
X4.04Y4.77
X4.04Y4.67
X4.138Y4.17
X4.138Y4.07
X4.14Y4.77
X4.14Y4.67
X4.1895Y5.4309
X4.1895Y5.3309
X4.1895Y3.5809
X4.1895Y3.4809
X4.238Y4.17
X4.238Y4.07
X4.24Y4.77
X4.24Y4.67
X4.338Y4.17
X4.338Y4.07
X4.34Y4.77
X4.34Y4.67
X4.445Y5.975
X4.545Y5.975
X4.645Y5.975
X4.67Y6.925
X4.745Y5.975
X4.77Y6.925
X4.845Y5.975
X4.87Y6.925
X4.945Y5.975
X4.97Y6.925
X5.045Y5.975
X5.145Y5.975
X5.24Y4.77
X5.24Y4.67
X5.24Y4.17
X5.24Y4.07
X5.34Y4.77
X5.34Y4.67
X5.34Y4.17
X5.34Y4.07
X5.4005Y5.4191
X5.4005Y5.3191
X5.4005Y3.5691
X5.4005Y3.4691
X5.44Y4.77
X5.44Y4.67
X5.44Y4.17
X5.44Y4.07
X5.54Y4.77
X5.54Y4.67
X5.54Y4.17
X5.54Y4.07
X5.64Y4.77
X5.64Y4.67
X5.64Y4.17
X5.64Y4.07
X5.74Y4.77
X5.74Y4.67
X5.74Y4.17
X5.74Y4.07
X5.84Y4.77
X5.84Y4.67
X5.84Y4.17
X5.84Y4.07
X5.845Y6.6
X5.94Y4.77
X5.94Y4.67
X5.94Y4.17
X5.94Y4.07
X5.945Y6.6
X5.945Y5.525
X5.945Y5.425
X5.945Y5.325
X5.945Y5.225
X5.945Y3.675
X5.945Y3.575
X5.945Y3.475
X5.945Y3.375
X6.04Y4.77
X6.04Y4.67
X6.04Y4.17
X6.04Y4.07
X6.045Y6.6
X6.14Y4.77
X6.14Y4.67
X6.14Y4.17
X6.14Y4.07
X6.145Y6.6
X6.24Y4.77
X6.24Y4.67
X6.24Y4.17
X6.24Y4.07
X6.34Y4.77
X6.34Y4.67
X6.34Y4.17
X6.34Y4.07
X6.44Y4.77
X6.44Y4.67
X6.44Y4.17
X6.44Y4.07
X6.54Y4.77
X6.54Y4.67
X6.54Y4.17
X6.54Y4.07
X6.64Y4.77
X6.64Y4.67
X6.64Y4.17
X6.64Y4.07
X6.74Y4.77
X6.74Y4.67
X6.74Y4.17
X6.74Y4.07
X6.84Y4.77
X6.84Y4.67
X6.84Y4.17
X6.84Y4.07
X6.94Y4.77
X6.94Y4.67
X6.94Y4.17
X6.94Y4.07
X7.04Y4.77
X7.04Y4.67
X7.04Y4.17
X7.04Y4.07
X7.07Y6.925
X7.07Y1.8
X7.14Y4.77
X7.14Y4.67
X7.14Y4.17
X7.14Y4.07
X7.17Y6.925
X7.17Y1.8
X7.27Y6.925
X7.27Y1.8
X7.37Y6.925
X7.37Y1.8
T3
X4.805Y5.2569
X5.1718Y4.2003
X5.1947Y4.882
T4
X4.795Y4.5
X4.795Y4.4
X7.37Y3.15
X7.37Y3.05
T5
X6.845Y6.6
X6.845Y6.5
X6.945Y6.6
X6.945Y6.5
X7.045Y6.6
X7.045Y6.5
X7.145Y6.6
X7.145Y6.5
T6
X4.495Y2.525
X4.495Y2.325
X6.595Y2.525
X6.595Y2.325
T4
G00X7.2098Y2.4644
M15
G01X7.2098Y2.5431
M16
G05
G00X7.3672Y2.6888
M15
G01X7.2885Y2.6888
M16
G05
G00X7.446Y2.4644
M15
G01X7.446Y2.5431
M16
G05
T0
M30
