%TF.GenerationSoftware,KiCad,Pcbnew,(5.1.9)-1*%
%TF.CreationDate,2021-04-29T12:58:22-07:00*%
%TF.ProjectId,pcbDesignForAutonomousDrivingProject,70636244-6573-4696-976e-466f72417574,rev?*%
%TF.SameCoordinates,Original*%
%TF.FileFunction,Legend,Bot*%
%TF.FilePolarity,Positive*%
%FSLAX46Y46*%
G04 Gerber Fmt 4.6, Leading zero omitted, Abs format (unit mm)*
G04 Created by KiCad (PCBNEW (5.1.9)-1) date 2021-04-29 12:58:22*
%MOMM*%
%LPD*%
G01*
G04 APERTURE LIST*
%ADD10C,0.500000*%
%ADD11C,0.120000*%
%ADD12C,0.150000*%
G04 APERTURE END LIST*
D10*
X166321333Y75295238D02*
X166321333Y77295238D01*
X165845142Y77295238D01*
X165559428Y77200000D01*
X165368952Y77009523D01*
X165273714Y76819047D01*
X165178476Y76438095D01*
X165178476Y76152380D01*
X165273714Y75771428D01*
X165368952Y75580952D01*
X165559428Y75390476D01*
X165845142Y75295238D01*
X166321333Y75295238D01*
X164321333Y75295238D02*
X164321333Y76628571D01*
X164321333Y76247619D02*
X164226095Y76438095D01*
X164130857Y76533333D01*
X163940380Y76628571D01*
X163749904Y76628571D01*
X163083238Y75295238D02*
X163083238Y76628571D01*
X163083238Y77295238D02*
X163178476Y77200000D01*
X163083238Y77104761D01*
X162988000Y77200000D01*
X163083238Y77295238D01*
X163083238Y77104761D01*
X162321333Y76628571D02*
X161845142Y75295238D01*
X161368952Y76628571D01*
X159845142Y75390476D02*
X160035619Y75295238D01*
X160416571Y75295238D01*
X160607047Y75390476D01*
X160702285Y75580952D01*
X160702285Y76342857D01*
X160607047Y76533333D01*
X160416571Y76628571D01*
X160035619Y76628571D01*
X159845142Y76533333D01*
X159749904Y76342857D01*
X159749904Y76152380D01*
X160702285Y75961904D01*
X158892761Y75295238D02*
X158892761Y76628571D01*
X158892761Y76247619D02*
X158797523Y76438095D01*
X158702285Y76533333D01*
X158511809Y76628571D01*
X158321333Y76628571D01*
X156130857Y75295238D02*
X156130857Y77295238D01*
X154988000Y75295238D01*
X154988000Y77295238D01*
X153749904Y75295238D02*
X153940380Y75390476D01*
X154035619Y75485714D01*
X154130857Y75676190D01*
X154130857Y76247619D01*
X154035619Y76438095D01*
X153940380Y76533333D01*
X153749904Y76628571D01*
X153464190Y76628571D01*
X153273714Y76533333D01*
X153178476Y76438095D01*
X153083238Y76247619D01*
X153083238Y75676190D01*
X153178476Y75485714D01*
X153273714Y75390476D01*
X153464190Y75295238D01*
X153749904Y75295238D01*
X151368952Y75295238D02*
X151368952Y77295238D01*
X151368952Y75390476D02*
X151559428Y75295238D01*
X151940380Y75295238D01*
X152130857Y75390476D01*
X152226095Y75485714D01*
X152321333Y75676190D01*
X152321333Y76247619D01*
X152226095Y76438095D01*
X152130857Y76533333D01*
X151940380Y76628571D01*
X151559428Y76628571D01*
X151368952Y76533333D01*
X149654666Y75390476D02*
X149845142Y75295238D01*
X150226095Y75295238D01*
X150416571Y75390476D01*
X150511809Y75580952D01*
X150511809Y76342857D01*
X150416571Y76533333D01*
X150226095Y76628571D01*
X149845142Y76628571D01*
X149654666Y76533333D01*
X149559428Y76342857D01*
X149559428Y76152380D01*
X150511809Y75961904D01*
X95312761Y150860000D02*
X95503238Y150955238D01*
X95788952Y150955238D01*
X96074666Y150860000D01*
X96265142Y150669523D01*
X96360380Y150479047D01*
X96455619Y150098095D01*
X96455619Y149812380D01*
X96360380Y149431428D01*
X96265142Y149240952D01*
X96074666Y149050476D01*
X95788952Y148955238D01*
X95598476Y148955238D01*
X95312761Y149050476D01*
X95217523Y149145714D01*
X95217523Y149812380D01*
X95598476Y149812380D01*
X94360380Y148955238D02*
X94360380Y150955238D01*
X93598476Y150955238D01*
X93408000Y150860000D01*
X93312761Y150764761D01*
X93217523Y150574285D01*
X93217523Y150288571D01*
X93312761Y150098095D01*
X93408000Y150002857D01*
X93598476Y149907619D01*
X94360380Y149907619D01*
X92455619Y149050476D02*
X92169904Y148955238D01*
X91693714Y148955238D01*
X91503238Y149050476D01*
X91408000Y149145714D01*
X91312761Y149336190D01*
X91312761Y149526666D01*
X91408000Y149717142D01*
X91503238Y149812380D01*
X91693714Y149907619D01*
X92074666Y150002857D01*
X92265142Y150098095D01*
X92360380Y150193333D01*
X92455619Y150383809D01*
X92455619Y150574285D01*
X92360380Y150764761D01*
X92265142Y150860000D01*
X92074666Y150955238D01*
X91598476Y150955238D01*
X91312761Y150860000D01*
X88931809Y148955238D02*
X88931809Y150955238D01*
X87788952Y148955238D01*
X87788952Y150955238D01*
X86550857Y148955238D02*
X86741333Y149050476D01*
X86836571Y149145714D01*
X86931809Y149336190D01*
X86931809Y149907619D01*
X86836571Y150098095D01*
X86741333Y150193333D01*
X86550857Y150288571D01*
X86265142Y150288571D01*
X86074666Y150193333D01*
X85979428Y150098095D01*
X85884190Y149907619D01*
X85884190Y149336190D01*
X85979428Y149145714D01*
X86074666Y149050476D01*
X86265142Y148955238D01*
X86550857Y148955238D01*
X84169904Y148955238D02*
X84169904Y150955238D01*
X84169904Y149050476D02*
X84360380Y148955238D01*
X84741333Y148955238D01*
X84931809Y149050476D01*
X85027047Y149145714D01*
X85122285Y149336190D01*
X85122285Y149907619D01*
X85027047Y150098095D01*
X84931809Y150193333D01*
X84741333Y150288571D01*
X84360380Y150288571D01*
X84169904Y150193333D01*
X82455619Y149050476D02*
X82646095Y148955238D01*
X83027047Y148955238D01*
X83217523Y149050476D01*
X83312761Y149240952D01*
X83312761Y150002857D01*
X83217523Y150193333D01*
X83027047Y150288571D01*
X82646095Y150288571D01*
X82455619Y150193333D01*
X82360380Y150002857D01*
X82360380Y149812380D01*
X83312761Y149621904D01*
X167067047Y150955238D02*
X167067047Y149336190D01*
X166971809Y149145714D01*
X166876571Y149050476D01*
X166686095Y148955238D01*
X166305142Y148955238D01*
X166114666Y149050476D01*
X166019428Y149145714D01*
X165924190Y149336190D01*
X165924190Y150955238D01*
X164686095Y148955238D02*
X164876571Y149050476D01*
X164971809Y149240952D01*
X164971809Y150955238D01*
X164209904Y150288571D02*
X163448000Y150288571D01*
X163924190Y150955238D02*
X163924190Y149240952D01*
X163828952Y149050476D01*
X163638476Y148955238D01*
X163448000Y148955238D01*
X162781333Y148955238D02*
X162781333Y150288571D01*
X162781333Y149907619D02*
X162686095Y150098095D01*
X162590857Y150193333D01*
X162400380Y150288571D01*
X162209904Y150288571D01*
X160686095Y148955238D02*
X160686095Y150002857D01*
X160781333Y150193333D01*
X160971809Y150288571D01*
X161352761Y150288571D01*
X161543238Y150193333D01*
X160686095Y149050476D02*
X160876571Y148955238D01*
X161352761Y148955238D01*
X161543238Y149050476D01*
X161638476Y149240952D01*
X161638476Y149431428D01*
X161543238Y149621904D01*
X161352761Y149717142D01*
X160876571Y149717142D01*
X160686095Y149812380D01*
X159828952Y149050476D02*
X159638476Y148955238D01*
X159257523Y148955238D01*
X159067047Y149050476D01*
X158971809Y149240952D01*
X158971809Y149336190D01*
X159067047Y149526666D01*
X159257523Y149621904D01*
X159543238Y149621904D01*
X159733714Y149717142D01*
X159828952Y149907619D01*
X159828952Y150002857D01*
X159733714Y150193333D01*
X159543238Y150288571D01*
X159257523Y150288571D01*
X159067047Y150193333D01*
X157828952Y148955238D02*
X158019428Y149050476D01*
X158114666Y149145714D01*
X158209904Y149336190D01*
X158209904Y149907619D01*
X158114666Y150098095D01*
X158019428Y150193333D01*
X157828952Y150288571D01*
X157543238Y150288571D01*
X157352761Y150193333D01*
X157257523Y150098095D01*
X157162285Y149907619D01*
X157162285Y149336190D01*
X157257523Y149145714D01*
X157352761Y149050476D01*
X157543238Y148955238D01*
X157828952Y148955238D01*
X156305142Y150288571D02*
X156305142Y148955238D01*
X156305142Y150098095D02*
X156209904Y150193333D01*
X156019428Y150288571D01*
X155733714Y150288571D01*
X155543238Y150193333D01*
X155448000Y150002857D01*
X155448000Y148955238D01*
X154495619Y148955238D02*
X154495619Y150288571D01*
X154495619Y150955238D02*
X154590857Y150860000D01*
X154495619Y150764761D01*
X154400380Y150860000D01*
X154495619Y150955238D01*
X154495619Y150764761D01*
X152686095Y149050476D02*
X152876571Y148955238D01*
X153257523Y148955238D01*
X153448000Y149050476D01*
X153543238Y149145714D01*
X153638476Y149336190D01*
X153638476Y149907619D01*
X153543238Y150098095D01*
X153448000Y150193333D01*
X153257523Y150288571D01*
X152876571Y150288571D01*
X152686095Y150193333D01*
X150305142Y148955238D02*
X150305142Y150955238D01*
X149162285Y148955238D01*
X149162285Y150955238D01*
X147924190Y148955238D02*
X148114666Y149050476D01*
X148209904Y149145714D01*
X148305142Y149336190D01*
X148305142Y149907619D01*
X148209904Y150098095D01*
X148114666Y150193333D01*
X147924190Y150288571D01*
X147638476Y150288571D01*
X147448000Y150193333D01*
X147352761Y150098095D01*
X147257523Y149907619D01*
X147257523Y149336190D01*
X147352761Y149145714D01*
X147448000Y149050476D01*
X147638476Y148955238D01*
X147924190Y148955238D01*
X145543238Y148955238D02*
X145543238Y150955238D01*
X145543238Y149050476D02*
X145733714Y148955238D01*
X146114666Y148955238D01*
X146305142Y149050476D01*
X146400380Y149145714D01*
X146495619Y149336190D01*
X146495619Y149907619D01*
X146400380Y150098095D01*
X146305142Y150193333D01*
X146114666Y150288571D01*
X145733714Y150288571D01*
X145543238Y150193333D01*
X143828952Y149050476D02*
X144019428Y148955238D01*
X144400380Y148955238D01*
X144590857Y149050476D01*
X144686095Y149240952D01*
X144686095Y150002857D01*
X144590857Y150193333D01*
X144400380Y150288571D01*
X144019428Y150288571D01*
X143828952Y150193333D01*
X143733714Y150002857D01*
X143733714Y149812380D01*
X144686095Y149621904D01*
X101122285Y75295238D02*
X101122285Y76628571D01*
X101122285Y76438095D02*
X101027047Y76533333D01*
X100836571Y76628571D01*
X100550857Y76628571D01*
X100360380Y76533333D01*
X100265142Y76342857D01*
X100265142Y75295238D01*
X100265142Y76342857D02*
X100169904Y76533333D01*
X99979428Y76628571D01*
X99693714Y76628571D01*
X99503238Y76533333D01*
X99408000Y76342857D01*
X99408000Y75295238D01*
X98169904Y75295238D02*
X98360380Y75390476D01*
X98455619Y75485714D01*
X98550857Y75676190D01*
X98550857Y76247619D01*
X98455619Y76438095D01*
X98360380Y76533333D01*
X98169904Y76628571D01*
X97884190Y76628571D01*
X97693714Y76533333D01*
X97598476Y76438095D01*
X97503238Y76247619D01*
X97503238Y75676190D01*
X97598476Y75485714D01*
X97693714Y75390476D01*
X97884190Y75295238D01*
X98169904Y75295238D01*
X96931809Y76628571D02*
X96169904Y76628571D01*
X96646095Y77295238D02*
X96646095Y75580952D01*
X96550857Y75390476D01*
X96360380Y75295238D01*
X96169904Y75295238D01*
X95217523Y75295238D02*
X95408000Y75390476D01*
X95503238Y75485714D01*
X95598476Y75676190D01*
X95598476Y76247619D01*
X95503238Y76438095D01*
X95408000Y76533333D01*
X95217523Y76628571D01*
X94931809Y76628571D01*
X94741333Y76533333D01*
X94646095Y76438095D01*
X94550857Y76247619D01*
X94550857Y75676190D01*
X94646095Y75485714D01*
X94741333Y75390476D01*
X94931809Y75295238D01*
X95217523Y75295238D01*
X93693714Y75295238D02*
X93693714Y76628571D01*
X93693714Y76247619D02*
X93598476Y76438095D01*
X93503238Y76533333D01*
X93312761Y76628571D01*
X93122285Y76628571D01*
X92741333Y77295238D02*
X91598476Y77295238D01*
X92169904Y75295238D02*
X92169904Y77295238D01*
X91122285Y75295238D02*
X90074666Y76628571D01*
X91122285Y76628571D02*
X90074666Y75295238D01*
X88169904Y75295238D02*
X88836571Y76247619D01*
X89312761Y75295238D02*
X89312761Y77295238D01*
X88550857Y77295238D01*
X88360380Y77200000D01*
X88265142Y77104761D01*
X88169904Y76914285D01*
X88169904Y76628571D01*
X88265142Y76438095D01*
X88360380Y76342857D01*
X88550857Y76247619D01*
X89312761Y76247619D01*
X87503238Y75295238D02*
X86455619Y76628571D01*
X87503238Y76628571D02*
X86455619Y75295238D01*
X84169904Y75295238D02*
X84169904Y77295238D01*
X83027047Y75295238D01*
X83027047Y77295238D01*
X81788952Y75295238D02*
X81979428Y75390476D01*
X82074666Y75485714D01*
X82169904Y75676190D01*
X82169904Y76247619D01*
X82074666Y76438095D01*
X81979428Y76533333D01*
X81788952Y76628571D01*
X81503238Y76628571D01*
X81312761Y76533333D01*
X81217523Y76438095D01*
X81122285Y76247619D01*
X81122285Y75676190D01*
X81217523Y75485714D01*
X81312761Y75390476D01*
X81503238Y75295238D01*
X81788952Y75295238D01*
X79408000Y75295238D02*
X79408000Y77295238D01*
X79408000Y75390476D02*
X79598476Y75295238D01*
X79979428Y75295238D01*
X80169904Y75390476D01*
X80265142Y75485714D01*
X80360380Y75676190D01*
X80360380Y76247619D01*
X80265142Y76438095D01*
X80169904Y76533333D01*
X79979428Y76628571D01*
X79598476Y76628571D01*
X79408000Y76533333D01*
X77693714Y75390476D02*
X77884190Y75295238D01*
X78265142Y75295238D01*
X78455619Y75390476D01*
X78550857Y75580952D01*
X78550857Y76342857D01*
X78455619Y76533333D01*
X78265142Y76628571D01*
X77884190Y76628571D01*
X77693714Y76533333D01*
X77598476Y76342857D01*
X77598476Y76152380D01*
X78550857Y75961904D01*
D11*
%TO.C,U2*%
X188976000Y114173000D02*
X186436000Y114173000D01*
X128016000Y114173000D02*
X124841000Y114173000D01*
X124841000Y182753000D02*
X124841000Y114173000D01*
X189611000Y182753000D02*
X124841000Y182753000D01*
X189611000Y114173000D02*
X189611000Y182753000D01*
X188976000Y114173000D02*
X189611000Y114173000D01*
X186436000Y114173000D02*
X128016000Y114173000D01*
X186436000Y126873000D02*
X186436000Y114173000D01*
X128016000Y126873000D02*
X186436000Y126873000D01*
X128016000Y114173000D02*
X128016000Y126873000D01*
%TO.C,U3*%
X117856000Y114173000D02*
X115316000Y114173000D01*
X56896000Y114173000D02*
X53721000Y114173000D01*
X53721000Y182753000D02*
X53721000Y114173000D01*
X118491000Y182753000D02*
X53721000Y182753000D01*
X118491000Y114173000D02*
X118491000Y182753000D01*
X117856000Y114173000D02*
X118491000Y114173000D01*
X115316000Y114173000D02*
X56896000Y114173000D01*
X115316000Y126873000D02*
X115316000Y114173000D01*
X56896000Y126873000D02*
X115316000Y126873000D01*
X56896000Y114173000D02*
X56896000Y126873000D01*
%TO.C,U12*%
X115265200Y110363000D02*
X115265200Y97663000D01*
X115265200Y97663000D02*
X56845200Y97663000D01*
X56845200Y97663000D02*
X56845200Y110363000D01*
X56845200Y110363000D02*
X115265200Y110363000D01*
X54305200Y110363000D02*
X53670200Y110363000D01*
X53670200Y110363000D02*
X53670200Y41783000D01*
X53670200Y41783000D02*
X118440200Y41783000D01*
X118440200Y41783000D02*
X118440200Y110363000D01*
X115265200Y110363000D02*
X118440200Y110363000D01*
X54305200Y110363000D02*
X56845200Y110363000D01*
%TO.C,U14*%
X186436000Y110363000D02*
X186436000Y97663000D01*
X186436000Y97663000D02*
X128016000Y97663000D01*
X128016000Y97663000D02*
X128016000Y110363000D01*
X128016000Y110363000D02*
X186436000Y110363000D01*
X125476000Y110363000D02*
X124841000Y110363000D01*
X124841000Y110363000D02*
X124841000Y41783000D01*
X124841000Y41783000D02*
X189611000Y41783000D01*
X189611000Y41783000D02*
X189611000Y110363000D01*
X186436000Y110363000D02*
X189611000Y110363000D01*
X125476000Y110363000D02*
X128016000Y110363000D01*
%TO.C,U2*%
D12*
X184149904Y126531619D02*
X184149904Y125722095D01*
X184102285Y125626857D01*
X184054666Y125579238D01*
X183959428Y125531619D01*
X183768952Y125531619D01*
X183673714Y125579238D01*
X183626095Y125626857D01*
X183578476Y125722095D01*
X183578476Y126531619D01*
X183149904Y126436380D02*
X183102285Y126484000D01*
X183007047Y126531619D01*
X182768952Y126531619D01*
X182673714Y126484000D01*
X182626095Y126436380D01*
X182578476Y126341142D01*
X182578476Y126245904D01*
X182626095Y126103047D01*
X183197523Y125531619D01*
X182578476Y125531619D01*
X133596000Y122936095D02*
X133643619Y122840857D01*
X133643619Y122698000D01*
X133596000Y122555142D01*
X133500761Y122459904D01*
X133405523Y122412285D01*
X133215047Y122364666D01*
X133072190Y122364666D01*
X132881714Y122412285D01*
X132786476Y122459904D01*
X132691238Y122555142D01*
X132643619Y122698000D01*
X132643619Y122793238D01*
X132691238Y122936095D01*
X132738857Y122983714D01*
X133072190Y122983714D01*
X133072190Y122793238D01*
X132643619Y123412285D02*
X133643619Y123412285D01*
X132643619Y123983714D01*
X133643619Y123983714D01*
X132643619Y124459904D02*
X133643619Y124459904D01*
X133643619Y124698000D01*
X133596000Y124840857D01*
X133500761Y124936095D01*
X133405523Y124983714D01*
X133215047Y125031333D01*
X133072190Y125031333D01*
X132881714Y124983714D01*
X132786476Y124936095D01*
X132691238Y124840857D01*
X132643619Y124698000D01*
X132643619Y124459904D01*
X133596000Y115316095D02*
X133643619Y115220857D01*
X133643619Y115078000D01*
X133596000Y114935142D01*
X133500761Y114839904D01*
X133405523Y114792285D01*
X133215047Y114744666D01*
X133072190Y114744666D01*
X132881714Y114792285D01*
X132786476Y114839904D01*
X132691238Y114935142D01*
X132643619Y115078000D01*
X132643619Y115173238D01*
X132691238Y115316095D01*
X132738857Y115363714D01*
X133072190Y115363714D01*
X133072190Y115173238D01*
X132643619Y115792285D02*
X133643619Y115792285D01*
X132643619Y116363714D01*
X133643619Y116363714D01*
X132643619Y116839904D02*
X133643619Y116839904D01*
X133643619Y117078000D01*
X133596000Y117220857D01*
X133500761Y117316095D01*
X133405523Y117363714D01*
X133215047Y117411333D01*
X133072190Y117411333D01*
X132881714Y117363714D01*
X132786476Y117316095D01*
X132691238Y117220857D01*
X132643619Y117078000D01*
X132643619Y116839904D01*
X181641714Y117292380D02*
X181594095Y117340000D01*
X181498857Y117387619D01*
X181260761Y117387619D01*
X181165523Y117340000D01*
X181117904Y117292380D01*
X181070285Y117197142D01*
X181070285Y117101904D01*
X181117904Y116959047D01*
X181689333Y116387619D01*
X181070285Y116387619D01*
X181070285Y122483619D02*
X181641714Y122483619D01*
X181356000Y122483619D02*
X181356000Y123483619D01*
X181451238Y123340761D01*
X181546476Y123245523D01*
X181641714Y123197904D01*
%TO.C,U3*%
X113029904Y126531619D02*
X113029904Y125722095D01*
X112982285Y125626857D01*
X112934666Y125579238D01*
X112839428Y125531619D01*
X112648952Y125531619D01*
X112553714Y125579238D01*
X112506095Y125626857D01*
X112458476Y125722095D01*
X112458476Y126531619D01*
X112077523Y126531619D02*
X111458476Y126531619D01*
X111791809Y126150666D01*
X111648952Y126150666D01*
X111553714Y126103047D01*
X111506095Y126055428D01*
X111458476Y125960190D01*
X111458476Y125722095D01*
X111506095Y125626857D01*
X111553714Y125579238D01*
X111648952Y125531619D01*
X111934666Y125531619D01*
X112029904Y125579238D01*
X112077523Y125626857D01*
X62476000Y122936095D02*
X62523619Y122840857D01*
X62523619Y122698000D01*
X62476000Y122555142D01*
X62380761Y122459904D01*
X62285523Y122412285D01*
X62095047Y122364666D01*
X61952190Y122364666D01*
X61761714Y122412285D01*
X61666476Y122459904D01*
X61571238Y122555142D01*
X61523619Y122698000D01*
X61523619Y122793238D01*
X61571238Y122936095D01*
X61618857Y122983714D01*
X61952190Y122983714D01*
X61952190Y122793238D01*
X61523619Y123412285D02*
X62523619Y123412285D01*
X61523619Y123983714D01*
X62523619Y123983714D01*
X61523619Y124459904D02*
X62523619Y124459904D01*
X62523619Y124698000D01*
X62476000Y124840857D01*
X62380761Y124936095D01*
X62285523Y124983714D01*
X62095047Y125031333D01*
X61952190Y125031333D01*
X61761714Y124983714D01*
X61666476Y124936095D01*
X61571238Y124840857D01*
X61523619Y124698000D01*
X61523619Y124459904D01*
X62476000Y115316095D02*
X62523619Y115220857D01*
X62523619Y115078000D01*
X62476000Y114935142D01*
X62380761Y114839904D01*
X62285523Y114792285D01*
X62095047Y114744666D01*
X61952190Y114744666D01*
X61761714Y114792285D01*
X61666476Y114839904D01*
X61571238Y114935142D01*
X61523619Y115078000D01*
X61523619Y115173238D01*
X61571238Y115316095D01*
X61618857Y115363714D01*
X61952190Y115363714D01*
X61952190Y115173238D01*
X61523619Y115792285D02*
X62523619Y115792285D01*
X61523619Y116363714D01*
X62523619Y116363714D01*
X61523619Y116839904D02*
X62523619Y116839904D01*
X62523619Y117078000D01*
X62476000Y117220857D01*
X62380761Y117316095D01*
X62285523Y117363714D01*
X62095047Y117411333D01*
X61952190Y117411333D01*
X61761714Y117363714D01*
X61666476Y117316095D01*
X61571238Y117220857D01*
X61523619Y117078000D01*
X61523619Y116839904D01*
X110521714Y117292380D02*
X110474095Y117340000D01*
X110378857Y117387619D01*
X110140761Y117387619D01*
X110045523Y117340000D01*
X109997904Y117292380D01*
X109950285Y117197142D01*
X109950285Y117101904D01*
X109997904Y116959047D01*
X110569333Y116387619D01*
X109950285Y116387619D01*
X109950285Y122483619D02*
X110521714Y122483619D01*
X110236000Y122483619D02*
X110236000Y123483619D01*
X110331238Y123340761D01*
X110426476Y123245523D01*
X110521714Y123197904D01*
%TO.C,U12*%
X61131295Y99099619D02*
X61131295Y98290095D01*
X61083676Y98194857D01*
X61036057Y98147238D01*
X60940819Y98099619D01*
X60750342Y98099619D01*
X60655104Y98147238D01*
X60607485Y98194857D01*
X60559866Y98290095D01*
X60559866Y99099619D01*
X59559866Y98099619D02*
X60131295Y98099619D01*
X59845580Y98099619D02*
X59845580Y99099619D01*
X59940819Y98956761D01*
X60036057Y98861523D01*
X60131295Y98813904D01*
X59178914Y99004380D02*
X59131295Y99052000D01*
X59036057Y99099619D01*
X58797961Y99099619D01*
X58702723Y99052000D01*
X58655104Y99004380D01*
X58607485Y98909142D01*
X58607485Y98813904D01*
X58655104Y98671047D01*
X59226533Y98099619D01*
X58607485Y98099619D01*
X61639485Y101147619D02*
X62210914Y101147619D01*
X61925200Y101147619D02*
X61925200Y102147619D01*
X62020438Y102004761D01*
X62115676Y101909523D01*
X62210914Y101861904D01*
X62210914Y108148380D02*
X62163295Y108196000D01*
X62068057Y108243619D01*
X61829961Y108243619D01*
X61734723Y108196000D01*
X61687104Y108148380D01*
X61639485Y108053142D01*
X61639485Y107957904D01*
X61687104Y107815047D01*
X62258533Y107243619D01*
X61639485Y107243619D01*
X109685200Y109219904D02*
X109637580Y109315142D01*
X109637580Y109458000D01*
X109685200Y109600857D01*
X109780438Y109696095D01*
X109875676Y109743714D01*
X110066152Y109791333D01*
X110209009Y109791333D01*
X110399485Y109743714D01*
X110494723Y109696095D01*
X110589961Y109600857D01*
X110637580Y109458000D01*
X110637580Y109362761D01*
X110589961Y109219904D01*
X110542342Y109172285D01*
X110209009Y109172285D01*
X110209009Y109362761D01*
X110637580Y108743714D02*
X109637580Y108743714D01*
X110637580Y108172285D01*
X109637580Y108172285D01*
X110637580Y107696095D02*
X109637580Y107696095D01*
X109637580Y107458000D01*
X109685200Y107315142D01*
X109780438Y107219904D01*
X109875676Y107172285D01*
X110066152Y107124666D01*
X110209009Y107124666D01*
X110399485Y107172285D01*
X110494723Y107219904D01*
X110589961Y107315142D01*
X110637580Y107458000D01*
X110637580Y107696095D01*
X109685200Y101599904D02*
X109637580Y101695142D01*
X109637580Y101838000D01*
X109685200Y101980857D01*
X109780438Y102076095D01*
X109875676Y102123714D01*
X110066152Y102171333D01*
X110209009Y102171333D01*
X110399485Y102123714D01*
X110494723Y102076095D01*
X110589961Y101980857D01*
X110637580Y101838000D01*
X110637580Y101742761D01*
X110589961Y101599904D01*
X110542342Y101552285D01*
X110209009Y101552285D01*
X110209009Y101742761D01*
X110637580Y101123714D02*
X109637580Y101123714D01*
X110637580Y100552285D01*
X109637580Y100552285D01*
X110637580Y100076095D02*
X109637580Y100076095D01*
X109637580Y99838000D01*
X109685200Y99695142D01*
X109780438Y99599904D01*
X109875676Y99552285D01*
X110066152Y99504666D01*
X110209009Y99504666D01*
X110399485Y99552285D01*
X110494723Y99599904D01*
X110589961Y99695142D01*
X110637580Y99838000D01*
X110637580Y100076095D01*
%TO.C,U14*%
X132302095Y99099619D02*
X132302095Y98290095D01*
X132254476Y98194857D01*
X132206857Y98147238D01*
X132111619Y98099619D01*
X131921142Y98099619D01*
X131825904Y98147238D01*
X131778285Y98194857D01*
X131730666Y98290095D01*
X131730666Y99099619D01*
X130730666Y98099619D02*
X131302095Y98099619D01*
X131016380Y98099619D02*
X131016380Y99099619D01*
X131111619Y98956761D01*
X131206857Y98861523D01*
X131302095Y98813904D01*
X129873523Y98766285D02*
X129873523Y98099619D01*
X130111619Y99147238D02*
X130349714Y98432952D01*
X129730666Y98432952D01*
X132810285Y101147619D02*
X133381714Y101147619D01*
X133096000Y101147619D02*
X133096000Y102147619D01*
X133191238Y102004761D01*
X133286476Y101909523D01*
X133381714Y101861904D01*
X133381714Y108148380D02*
X133334095Y108196000D01*
X133238857Y108243619D01*
X133000761Y108243619D01*
X132905523Y108196000D01*
X132857904Y108148380D01*
X132810285Y108053142D01*
X132810285Y107957904D01*
X132857904Y107815047D01*
X133429333Y107243619D01*
X132810285Y107243619D01*
X180856000Y109219904D02*
X180808380Y109315142D01*
X180808380Y109458000D01*
X180856000Y109600857D01*
X180951238Y109696095D01*
X181046476Y109743714D01*
X181236952Y109791333D01*
X181379809Y109791333D01*
X181570285Y109743714D01*
X181665523Y109696095D01*
X181760761Y109600857D01*
X181808380Y109458000D01*
X181808380Y109362761D01*
X181760761Y109219904D01*
X181713142Y109172285D01*
X181379809Y109172285D01*
X181379809Y109362761D01*
X181808380Y108743714D02*
X180808380Y108743714D01*
X181808380Y108172285D01*
X180808380Y108172285D01*
X181808380Y107696095D02*
X180808380Y107696095D01*
X180808380Y107458000D01*
X180856000Y107315142D01*
X180951238Y107219904D01*
X181046476Y107172285D01*
X181236952Y107124666D01*
X181379809Y107124666D01*
X181570285Y107172285D01*
X181665523Y107219904D01*
X181760761Y107315142D01*
X181808380Y107458000D01*
X181808380Y107696095D01*
X180856000Y101599904D02*
X180808380Y101695142D01*
X180808380Y101838000D01*
X180856000Y101980857D01*
X180951238Y102076095D01*
X181046476Y102123714D01*
X181236952Y102171333D01*
X181379809Y102171333D01*
X181570285Y102123714D01*
X181665523Y102076095D01*
X181760761Y101980857D01*
X181808380Y101838000D01*
X181808380Y101742761D01*
X181760761Y101599904D01*
X181713142Y101552285D01*
X181379809Y101552285D01*
X181379809Y101742761D01*
X181808380Y101123714D02*
X180808380Y101123714D01*
X181808380Y100552285D01*
X180808380Y100552285D01*
X181808380Y100076095D02*
X180808380Y100076095D01*
X180808380Y99838000D01*
X180856000Y99695142D01*
X180951238Y99599904D01*
X181046476Y99552285D01*
X181236952Y99504666D01*
X181379809Y99504666D01*
X181570285Y99552285D01*
X181665523Y99599904D01*
X181760761Y99695142D01*
X181808380Y99838000D01*
X181808380Y100076095D01*
%TD*%
M02*
